<svg xmlns="http://www.w3.org/2000/svg" xmlns:xlink="http://www.w3.org/1999/xlink" width="500" zoomAndPan="magnify" viewBox="0 0 375 352.49999" height="470" preserveAspectRatio="xMidYMid meet" version="1.0"><defs><clipPath id="854637bb24"><path d="M 184 1.871094 L 268 1.871094 L 268 103 L 184 103 Z M 184 1.871094 " clip-rule="nonzero"/></clipPath><clipPath id="d5e9d55bbe"><path d="M 0.265625 146 L 85 146 L 85 249 L 0.265625 249 Z M 0.265625 146 " clip-rule="nonzero"/></clipPath><clipPath id="08b042a147"><path d="M 369 222 L 374.734375 222 L 374.734375 248 L 369 248 Z M 369 222 " clip-rule="nonzero"/></clipPath></defs><path fill="#84a3a7" d="M 92.160156 278.527344 C 91.695312 277.53125 91.234375 276.535156 90.828125 275.667969 C 91.230469 273.898438 91.730469 272.316406 91.914062 270.703125 C 92.144531 268.730469 92.664062 266.785156 93.777344 265.277344 C 96.453125 261.667969 97.628906 257.453125 99.0625 253.542969 C 99.960938 251.890625 102.132812 251.792969 102.613281 249.863281 C 102.113281 249.042969 101.578125 248.160156 101.039062 247.273438 C 100.980469 245.628906 102.753906 245.214844 103.328125 243.828125 C 103.558594 242.617188 103.820312 241.269531 104.175781 239.425781 C 105.121094 238.292969 106.347656 236.824219 107.582031 235.339844 C 107.804688 234.859375 108.144531 234.382812 108.25 233.863281 C 109.109375 229.515625 110.605469 225.507812 112.898438 221.625 C 115.976562 216.425781 118.421875 210.847656 121.058594 205.390625 C 123.347656 200.660156 125.925781 196.136719 129.796875 192.515625 C 130.046875 190.8125 130.285156 189.179688 130.523438 187.582031 C 131.285156 185.851562 132.75 185.253906 134.445312 185.011719 C 137.542969 186.375 138.9375 184.0625 140.511719 182.171875 C 140.855469 181.757812 141.226562 181.257812 141.316406 180.75 C 141.820312 177.828125 143.882812 175.964844 145.714844 174.125 C 146.765625 171.734375 147.308594 169.371094 148.980469 167.34375 C 151.238281 164.609375 152.933594 161.402344 154.871094 158.398438 C 156.539062 156.570312 159.050781 155.789062 160.527344 153.644531 C 161.753906 151.863281 163.078125 149.972656 164.796875 148.742188 C 168.582031 146.023438 172.101562 142.894531 176.214844 140.679688 C 178.609375 139.386719 181.246094 138.535156 183.515625 137.589844 C 185.765625 137.5 187.6875 137.40625 189.613281 137.355469 C 191.277344 137.3125 192.945312 137.410156 194.433594 138.226562 C 196.480469 139.351562 198.71875 139.03125 200.933594 139.390625 C 207.15625 137.160156 213.574219 135.820312 220.164062 135.675781 C 220.109375 134.648438 220.273438 133.835938 220.027344 133.675781 C 218.179688 132.511719 216.367188 131.132812 214.332031 130.460938 C 208.316406 128.472656 202.746094 125.433594 196.316406 123.113281 C 194.886719 123.171875 192.824219 122.820312 191.089844 123.421875 C 187.890625 124.527344 184.578125 124.414062 180.824219 125.089844 C 177.550781 126.644531 173.824219 128.417969 170.117188 130.179688 C 165.691406 134.402344 160.839844 138.019531 155.902344 141.527344 C 152.316406 144.074219 148.855469 146.726562 146.246094 150.386719 C 145.316406 151.6875 143.855469 152.628906 142.558594 153.636719 C 142.070312 154.015625 141.488281 153.769531 141.050781 153.21875 C 141.410156 150.773438 142.589844 148.527344 144.300781 146.835938 C 146.664062 144.5 148.339844 141.621094 150.742188 139.335938 C 153.328125 136.875 155.820312 134.304688 158.355469 131.785156 C 158.550781 131.589844 158.753906 131.40625 158.972656 131.238281 C 159.628906 130.734375 160.222656 130.035156 160.964844 129.78125 C 165.484375 128.253906 168.304688 123.976562 172.878906 122.511719 C 174.417969 122.023438 175.710938 120.628906 177.25 120.3125 C 180.992188 119.539062 184.539062 118.125 188.421875 117.734375 C 195.308594 117.042969 201.441406 118.699219 207.410156 121.929688 C 212.234375 124.542969 217.042969 127.199219 222.046875 129.488281 C 223.535156 130.167969 224.988281 130.890625 226.550781 131.425781 C 231.519531 133.132812 236.085938 135.726562 240.410156 138.617188 C 245.246094 141.855469 250.617188 143.996094 255.664062 146.777344 C 256.601562 147.296875 257.753906 147.464844 258.828125 147.675781 C 260.472656 147.996094 261.914062 148.734375 263.414062 149.441406 C 265.894531 150.601562 268.460938 151.734375 271.113281 152.316406 C 274.386719 153.035156 277.417969 154.226562 280.386719 155.679688 C 281.128906 156.042969 281.847656 156.507812 282.632812 156.722656 C 286.699219 157.820312 290.246094 159.796875 293.363281 162.632812 C 294.152344 163.347656 295.242188 163.726562 296.195312 164.257812 C 296.90625 164.65625 297.882812 164.878906 298.289062 165.484375 C 300.671875 169.035156 304.632812 170.714844 307.644531 173.527344 C 310.648438 176.335938 314.097656 178.664062 317.328125 181.234375 C 317.964844 181.742188 318.492188 182.394531 319.125 183.035156 C 325.59375 184.019531 331.882812 185.804688 337.839844 188.726562 C 339.804688 189.691406 341.890625 190.40625 343.882812 191.3125 C 344.339844 191.523438 344.644531 192.058594 345.019531 192.445312 L 345.160156 192.308594 C 339.519531 192.515625 334.363281 190.667969 329.28125 188.53125 C 327.511719 187.785156 325.800781 186.894531 324 186.238281 C 323.304688 185.984375 322.4375 186.199219 321.707031 186.199219 C 320.894531 187.90625 322.078125 188.921875 322.578125 190.078125 C 323.144531 191.375 324.132812 192.546875 325.417969 192.953125 C 328.933594 194.074219 331.640625 196.367188 334.519531 198.496094 C 338.664062 201.554688 341.28125 205.683594 343.214844 210.300781 C 344.0625 212.320312 344.53125 214.496094 345.242188 216.828125 C 345.324219 220.167969 345.214844 223.761719 346.34375 227.238281 C 346.585938 227.988281 346.644531 228.945312 346.410156 229.683594 C 345.613281 232.167969 346.253906 234.566406 346.53125 237.011719 C 346.777344 239.199219 346.867188 241.410156 346.871094 243.613281 C 346.898438 251.605469 344.515625 258.796875 339.464844 265.027344 C 338.429688 266.304688 337.285156 267.535156 336.011719 268.5625 C 334.304688 269.941406 332.527344 271.207031 330.96875 272.785156 C 330.246094 273.519531 329.050781 274.167969 328.054688 274.1875 C 324.019531 274.273438 320.714844 276.234375 317.300781 277.964844 C 317.058594 278.082031 316.773438 278.109375 316.3125 278.234375 C 314.589844 278.304688 312.667969 278.4375 310.746094 278.453125 C 308.808594 278.472656 306.890625 278.511719 305.078125 279.320312 C 303.164062 280.175781 301.300781 279.570312 298.972656 278.964844 C 295.660156 279.816406 291.867188 280.191406 288.015625 280.382812 C 283.917969 280.589844 279.800781 281.171875 275.789062 282.03125 C 273.625 282.492188 271.445312 282.828125 269.300781 282.917969 C 263.238281 283.171875 257.335938 284.574219 251.320312 285.0625 C 248.78125 285.269531 246.511719 286.277344 244.230469 287.179688 C 240.878906 288.503906 237.464844 289.441406 233.992188 289.929688 C 229.816406 289.144531 225.917969 287.859375 222.582031 285.953125 C 217.722656 287.324219 212.753906 286.375 208.664062 289.296875 C 206.351562 291.140625 203.96875 293.003906 202.53125 295.792969 C 202.039062 296.75 201.257812 297.609375 200.445312 298.332031 C 195.921875 302.363281 192.253906 307.265625 187.472656 311.035156 C 186.621094 311.710938 185.90625 312.582031 185.210938 313.433594 C 183.628906 315.375 181.792969 317.007812 179.644531 318.304688 C 176.550781 320.175781 173.988281 322.648438 171.609375 325.355469 C 169.613281 327.628906 167.152344 329.554688 165.480469 332.03125 C 163.753906 334.59375 161.089844 336.113281 159.296875 338.605469 C 157.898438 340.542969 155.59375 341.847656 153.617188 343.332031 C 152.300781 344.320312 150.796875 345.058594 149.476562 346.042969 C 147.476562 347.53125 145.4375 349.058594 142.980469 349.496094 C 138.957031 350.210938 135.15625 352.371094 129.808594 351.160156 C 127.527344 350.226562 124.234375 348.875 120.917969 347.515625 C 118.355469 344.609375 115.90625 341.652344 113.265625 338.875 C 110.386719 335.851562 108.273438 332.359375 106.191406 328.773438 C 101.746094 321.109375 98.921875 312.777344 95.878906 305.199219 C 94.3125 294.730469 95.789062 284.792969 95.113281 274.929688 C 94.296875 274.917969 93.996094 275.242188 93.859375 275.867188 C 93.617188 276.964844 93.207031 277.96875 92.03125 278.398438 Z M 240.890625 152.710938 C 240.574219 152.339844 240.320312 151.859375 239.921875 151.628906 C 239.351562 151.296875 238.90625 151.546875 238.882812 152.117188 C 238.878906 152.230469 239.28125 152.425781 239.511719 152.460938 C 240 152.542969 240.503906 152.546875 241 152.582031 C 241.554688 154.234375 242.957031 154.1875 244.3125 154.238281 C 245 155.597656 246.285156 155.78125 247.597656 155.914062 C 247.839844 156.308594 248.046875 156.730469 248.339844 157.082031 C 248.464844 157.226562 248.777344 157.277344 248.996094 157.261719 C 249.191406 157.246094 249.46875 157.132812 249.554688 156.976562 C 249.765625 156.589844 249.527344 156.226562 248.921875 156.105469 C 248.460938 156.011719 247.972656 156.050781 247.492188 156.03125 C 246.855469 154.558594 245.457031 154.601562 244.191406 154.378906 C 243.53125 152.953125 242.1875 152.882812 240.890625 152.710938 Z M 250.921875 215.65625 C 249.835938 216.167969 249.496094 217.148438 249.375 218.226562 C 249.285156 219.011719 249.285156 219.8125 249.246094 220.605469 C 247.332031 221.792969 246.539062 223.722656 245.972656 225.757812 C 245.765625 226.488281 245.910156 227.273438 246.679688 227.753906 C 248.628906 225.726562 249.238281 223.234375 249.125 220.503906 C 249.921875 220.171875 250.378906 219.539062 250.496094 218.726562 C 250.648438 217.675781 250.695312 216.609375 250.789062 215.546875 C 252.65625 213.605469 252.722656 213.460938 251.488281 211.691406 C 250.507812 212.902344 250.847656 214.300781 250.921875 215.65625 Z M 113.519531 303.390625 C 113.457031 302.859375 113.402344 302.328125 113.335938 301.800781 C 113.222656 300.957031 112.894531 300.804688 112.472656 301.421875 C 112.359375 301.585938 112.410156 302 112.546875 302.175781 C 112.863281 302.582031 113.28125 302.90625 113.65625 303.265625 C 113.433594 304.265625 112.382812 305.085938 112.890625 306.210938 C 113.070312 306.613281 113.621094 306.988281 114.066406 307.09375 C 114.523438 307.203125 114.828125 306.6875 114.835938 306.042969 C 114.855469 304.933594 114.675781 303.917969 113.519531 303.390625 Z M 197.941406 167.582031 C 194.542969 169.414062 194.195312 169.714844 194.226562 171.882812 C 197.09375 171.035156 197.257812 170.84375 197.902344 167.546875 C 198.296875 167.246094 198.796875 167.019531 199.0625 166.632812 C 199.4375 166.082031 199.210938 165.589844 198.609375 165.457031 C 198.503906 165.433594 198.226562 165.824219 198.167969 166.054688 C 198.046875 166.550781 198.011719 167.070312 197.941406 167.582031 Z M 166.570312 281.847656 C 163.726562 282.902344 162.960938 285.503906 162.085938 287.984375 C 161.980469 288.289062 162.449219 288.796875 162.652344 289.210938 C 162.886719 289.089844 163.214844 289.03125 163.34375 288.839844 C 164.792969 286.660156 166.484375 284.578125 166.449219 281.746094 C 166.835938 281.449219 167.253906 281.1875 167.589844 280.84375 C 167.742188 280.691406 167.785156 280.371094 167.769531 280.136719 C 167.75 279.933594 167.625 279.636719 167.464844 279.558594 C 167.082031 279.378906 166.761719 279.683594 166.667969 280.332031 C 166.597656 280.832031 166.601562 281.34375 166.570312 281.847656 Z M 189.714844 185.832031 C 184.769531 188.480469 182.539062 193.230469 180.363281 198.003906 C 180.191406 198.386719 180.5 198.992188 180.585938 199.492188 C 181.03125 199.34375 181.675781 199.332031 181.890625 199.023438 C 184.390625 195.417969 186.824219 191.765625 189.429688 187.898438 C 189.46875 187.355469 189.53125 186.539062 189.59375 185.722656 C 192.25 184.71875 193.980469 182.753906 195.273438 180.308594 C 195.789062 179.332031 195 180.792969 194.867188 179.699219 C 191.589844 180.566406 190.742188 181.574219 189.714844 185.832031 Z M 123.4375 291.613281 C 123.847656 291.261719 124.382812 290.988281 124.652344 290.554688 C 128.292969 284.691406 130.835938 278.441406 131.476562 271.492188 C 131.753906 268.507812 132.214844 265.542969 132.628906 262.261719 C 131.738281 260.28125 131.699219 257.824219 131.488281 255.371094 C 131.398438 254.308594 130.863281 253.269531 129.574219 253.023438 C 128.492188 253.59375 128.371094 254.722656 128.109375 255.714844 C 127.691406 257.289062 127.335938 258.886719 127.070312 260.492188 C 126.757812 262.371094 126.695312 264.292969 126.316406 266.15625 C 125.015625 272.550781 123.136719 278.84375 123.253906 285.476562 C 123.28125 286.800781 122.808594 288.132812 122.589844 289.335938 C 122.957031 290.230469 123.269531 290.984375 123.578125 291.734375 C 123.195312 292.066406 122.722656 292.339844 122.453125 292.746094 C 122.070312 293.332031 122.285156 293.777344 122.890625 293.8125 C 122.988281 293.820312 123.160156 293.394531 123.210938 293.148438 C 123.316406 292.644531 123.363281 292.125 123.4375 291.613281 Z M 141.640625 233.707031 C 142.078125 233.421875 142.722656 233.238281 142.925781 232.832031 C 145.722656 227.203125 148.734375 221.652344 151.125 215.847656 C 152.796875 211.78125 154.613281 207.863281 156.949219 204.148438 C 158.996094 200.902344 160.492188 197.402344 161.117188 193.753906 C 160.496094 192.308594 160.179688 190.945312 159.09375 190 C 158.640625 190.238281 158.027344 190.363281 157.761719 190.734375 C 153.460938 196.757812 150.558594 203.515625 147.664062 210.269531 C 146.484375 213.027344 145.507812 215.871094 144.363281 218.648438 C 142.359375 223.511719 141.082031 228.488281 141.753906 233.804688 C 141.375 234.152344 140.875 234.429688 140.644531 234.855469 C 140.316406 235.464844 140.578125 235.9375 141.164062 235.980469 C 141.261719 235.988281 141.453125 235.550781 141.496094 235.296875 C 141.582031 234.773438 141.59375 234.238281 141.640625 233.707031 Z M 334.890625 244.023438 C 334.691406 241.359375 333.117188 239.011719 331.761719 236.714844 C 328.9375 231.9375 327.789062 226.496094 325.355469 221.582031 C 324.90625 217.960938 323.171875 214.792969 321.707031 211.546875 C 319.683594 207.0625 317.515625 202.636719 315.601562 198.59375 C 313.386719 196.242188 311.40625 194.417969 308.449219 194 C 307.425781 193.855469 306.5 193.039062 305.523438 192.539062 C 303.574219 191.53125 301.601562 190.558594 299.664062 189.523438 C 296.996094 188.101562 294.164062 187.078125 291.324219 186.070312 C 290.71875 185.859375 290.226562 186.015625 289.847656 186.503906 C 289.953125 186.992188 289.902344 187.621094 290.191406 187.945312 C 293.105469 191.242188 295.925781 194.601562 297.972656 198.539062 C 298.347656 199.257812 298.9375 199.871094 299.453125 200.511719 C 303.621094 205.667969 306.992188 211.253906 309.15625 217.574219 C 310.667969 221.988281 312.480469 226.296875 314.097656 230.5 C 317.375 234.773438 321.203125 238.261719 325.328125 241.488281 C 327.316406 243.039062 329.40625 244.257812 331.773438 245.015625 C 332.867188 245.367188 333.921875 245.203125 334.890625 244.023438 Z M 260.328125 214.144531 C 259.105469 214.714844 258.269531 215.5 258.046875 216.59375 C 257.109375 221.1875 255.347656 225.519531 254.023438 229.988281 C 253.632812 231.300781 252.960938 232.527344 252.566406 233.835938 C 251.898438 236.050781 252.117188 238.261719 253.449219 240.152344 C 255.339844 242.84375 257.191406 245.628906 259.488281 247.945312 C 261.78125 250.257812 263.480469 253.230469 266.402344 254.796875 C 268.234375 254.15625 269.101562 252.738281 269.929688 251.316406 C 272.976562 246.078125 275.199219 240.464844 277.179688 234.761719 C 277.609375 233.523438 278.453125 232.285156 277.832031 230.578125 C 276.332031 228.941406 274.726562 227.070312 272.992188 225.324219 C 269.507812 221.820312 265.984375 218.355469 262.402344 214.957031 C 261.871094 214.453125 260.9375 214.371094 260.328125 214.144531 Z M 146.257812 298.441406 C 147.996094 293.792969 148.527344 288.667969 148.292969 283.40625 C 148.132812 279.839844 148.273438 276.261719 148.203125 272.691406 C 148.136719 269.125 147.980469 265.566406 147.835938 262.003906 C 147.832031 261.832031 147.59375 261.671875 147.222656 261.199219 C 143.476562 266.234375 143.074219 272.570312 140.128906 278.007812 C 138.316406 279.421875 136.378906 280.9375 134.496094 282.40625 C 133.429688 285.308594 132.761719 288.347656 131.253906 290.894531 C 129.691406 293.535156 128.632812 296.25 127.851562 299.15625 C 127.074219 302.035156 124.109375 303.929688 124.023438 307.648438 C 124.511719 308.019531 125.101562 308.691406 125.835938 308.988281 C 130.992188 311.078125 134.3125 310.089844 137.179688 307.207031 C 140.074219 304.292969 143.085938 301.496094 146.257812 298.441406 Z M 286.558594 237.828125 C 286.171875 238 285.84375 238.039062 285.703125 238.226562 C 285.210938 238.863281 284.535156 239.5 284.378906 240.234375 C 283.789062 242.988281 282.113281 245.253906 281.15625 247.800781 C 280.183594 250.40625 278.871094 252.757812 277.542969 255.15625 C 276.492188 257.050781 275 258.789062 274.832031 261.167969 C 280.34375 262.949219 285.9375 264.105469 291.285156 263.554688 C 293.578125 264.324219 295.386719 264.929688 296.941406 265.449219 C 300.703125 263.890625 300.703125 263.890625 304.757812 257.847656 C 304.960938 256.4375 305.210938 254.804688 305.433594 253.171875 C 305.625 251.757812 305.441406 250.429688 304.144531 248.960938 C 298.113281 246.027344 292.171875 242.105469 286.558594 237.828125 Z M 203.253906 218.210938 C 203.015625 220.378906 202.265625 226.886719 202.105469 228.207031 C 204.769531 236.226562 204.769531 236.226562 206.910156 237.738281 C 210.222656 231.710938 212.320312 225.210938 214.148438 218.65625 C 215.320312 214.460938 216.457031 210.199219 216.226562 205.71875 C 216.097656 203.257812 216.484375 200.8125 217.132812 198.398438 C 217.554688 196.835938 217.734375 195.171875 217.789062 193.546875 C 217.890625 190.535156 217.839844 187.515625 217.816406 184.5 C 217.804688 182.863281 217.851562 181.199219 216.886719 179.730469 C 215.523438 178.78125 214.117188 177.972656 212.023438 178.277344 C 211.433594 178.800781 210.636719 179.5 209.792969 180.246094 C 209.628906 182.261719 209.367188 184.160156 209.34375 186.058594 C 209.296875 189.621094 209.347656 193.1875 209.433594 196.75 C 209.484375 198.695312 209.039062 200.523438 208.640625 202.410156 C 207.496094 207.796875 205.816406 212.980469 203.253906 218.210938 Z M 260.03125 184.933594 C 260.933594 187.683594 261.503906 190.550781 261.570312 193.546875 C 261.632812 196.527344 262.25 199.5 262.5625 201.984375 C 263.726562 204.8125 266.421875 205.65625 267.542969 207.972656 C 268.773438 210.507812 271.800781 211.234375 273.410156 213.597656 C 274.753906 215.570312 276.929688 216.984375 278.773438 218.601562 C 279.171875 218.953125 279.707031 219.25 280.21875 219.335938 C 280.664062 219.410156 281.164062 219.15625 281.871094 218.992188 C 282.394531 215.234375 282.492188 211.371094 281.328125 207.695312 C 279.996094 203.507812 277.929688 199.570312 274.964844 196.289062 C 271.488281 192.429688 267.964844 188.585938 263.878906 185.335938 C 263.257812 184.835938 262.503906 184.414062 261.742188 184.214844 C 261.355469 184.113281 260.820312 184.582031 260.03125 184.933594 Z M 190.675781 200.070312 C 189.984375 200.566406 189.160156 200.894531 188.746094 201.507812 C 187.515625 203.316406 186.464844 205.25 185.308594 207.113281 C 179.308594 216.78125 175.992188 223.542969 172.398438 233.621094 C 171.660156 235.683594 170.910156 237.761719 170.425781 239.890625 C 169.5625 243.664062 169.476562 247.457031 170.613281 250.941406 C 171.726562 251.550781 172.503906 251.402344 173.140625 250.816406 C 173.53125 250.457031 173.882812 249.980469 174.070312 249.488281 C 177.011719 241.816406 180.507812 234.359375 183.019531 226.519531 C 183.351562 225.492188 183.9375 224.546875 184.410156 223.566406 C 184.996094 222.335938 185.835938 221.164062 186.125 219.871094 C 187.035156 215.808594 188.96875 212.160156 190.46875 208.335938 C 190.664062 207.828125 190.761719 207.285156 190.917969 206.710938 C 190.847656 204.589844 191.527344 202.402344 190.675781 200.070312 Z M 138 336.140625 C 139.214844 336.140625 140.042969 336.230469 140.839844 336.113281 C 141.632812 336 142.5625 335.882812 143.140625 335.40625 C 145.105469 333.789062 147.566406 333.324219 150.050781 332.1875 C 152.28125 329.792969 154.734375 327.242188 157.070312 324.582031 C 157.507812 324.082031 157.457031 323.148438 157.632812 322.421875 C 156.359375 321.53125 155.164062 320.84375 154.15625 319.949219 C 152.9375 318.867188 151.894531 317.59375 150.75 316.429688 C 149.945312 315.613281 148.996094 315.179688 147.925781 315.503906 C 144.972656 318.054688 142.089844 320.542969 139.460938 322.816406 C 135.902344 324.359375 132.664062 325.757812 129.46875 327.144531 C 129.710938 328.96875 130.414062 330.40625 131.691406 331.824219 C 133.523438 333.074219 135.539062 334.457031 138 336.140625 Z M 246.890625 247.710938 C 245.726562 247.898438 244.996094 248.660156 244.441406 249.621094 C 242.253906 253.40625 239.964844 257.140625 236.976562 260.351562 C 233.628906 263.949219 230.089844 267.351562 225.863281 269.949219 C 225.582031 270.121094 225.609375 270.789062 225.492188 271.234375 C 227.460938 271.910156 229.292969 271.625 230.980469 270.550781 C 232.859375 269.355469 234.808594 268.460938 237.105469 268.550781 C 237.640625 268.570312 238.203125 268.488281 238.726562 268.355469 C 245.578125 266.59375 252.425781 264.820312 259.269531 263.027344 C 259.40625 262.992188 259.460938 262.648438 259.636719 262.265625 C 255.675781 257.558594 251.667969 252.785156 247.636719 248.023438 C 247.480469 247.839844 247.140625 247.808594 246.890625 247.710938 Z M 235.425781 229.660156 C 234.835938 228.402344 234.308594 227.144531 233.667969 225.941406 C 233.152344 224.984375 232.511719 224.089844 231.917969 223.175781 C 231.339844 222.292969 229.785156 222.445312 229.175781 223.429688 C 229.03125 223.664062 228.789062 223.839844 228.679688 224.082031 C 227.320312 227.0625 226.039062 230.085938 224.609375 233.035156 C 223.1875 235.964844 221.050781 238.542969 220.679688 241.980469 C 220.570312 242.992188 219.855469 244 219.242188 244.894531 C 216.886719 248.328125 215.476562 252.140625 214.492188 255.890625 C 214.976562 259.320312 215.023438 259.308594 216.808594 261.113281 C 217.054688 261.019531 217.386719 260.992188 217.527344 260.8125 C 218.710938 259.324219 219.875 257.820312 221.007812 256.296875 C 224.441406 251.679688 227.109375 246.578125 229.96875 241.617188 C 232.136719 237.859375 233.613281 233.703125 235.425781 229.660156 Z M 183.648438 275.617188 C 180.640625 275.59375 179.757812 275.890625 178.957031 277.230469 C 177.699219 279.335938 176.84375 281.800781 175.207031 283.539062 C 171.605469 287.355469 169.316406 292.046875 166.191406 296.167969 C 164.886719 297.886719 163.800781 299.800781 163.660156 302.039062 C 164.355469 303.328125 165.203125 304.339844 166.804688 304.269531 C 170.554688 302.53125 173.625 299.921875 176.664062 297.15625 C 178.980469 295.050781 179.890625 292.125 181.855469 289.839844 C 184.183594 287.128906 185.710938 283.890625 186.777344 280.464844 C 186.921875 280.007812 186.75 279.457031 186.75 279.410156 C 185.496094 277.878906 184.464844 276.613281 183.648438 275.617188 Z M 192.320312 269.722656 C 193.671875 267.339844 194.695312 265.078125 196.125 263.121094 C 199.113281 259.03125 200.441406 254.359375 201.601562 249.398438 C 200.691406 246.621094 199.828125 243.753906 198.777344 240.957031 C 198.535156 240.308594 197.664062 239.898438 197.132812 239.425781 C 195.914062 239.949219 195.199219 240.851562 194.90625 241.886719 C 192.804688 249.292969 189.390625 256.128906 185.917969 262.941406 C 185.550781 263.664062 185.320312 264.460938 185.046875 265.234375 C 184.511719 266.734375 185.386719 268.628906 186.886719 269.367188 C 188.433594 270.128906 190.035156 270.140625 192.320312 269.722656 Z M 315.070312 255.3125 C 312.90625 256.972656 312.972656 257 311.875 259.839844 C 309.160156 266.871094 309.136719 266.863281 309.449219 269.164062 C 311.023438 268.984375 317.441406 268.269531 319.46875 268.046875 C 321.324219 265.851562 324.210938 264.847656 326.890625 263.476562 C 327.886719 262.96875 328.714844 262.304688 329.339844 261.355469 C 329.761719 260.714844 329.625 259.351562 329 259.179688 C 326.386719 258.453125 323.84375 257.695312 321.476562 256.191406 C 319.632812 255.015625 317.308594 254.898438 315.070312 255.3125 Z M 192.371094 221.804688 C 190.554688 222.621094 191.269531 224.699219 190.109375 225.832031 C 188.6875 227.214844 188.042969 229 188.003906 231.035156 C 187.984375 231.824219 187.660156 232.648438 187.324219 233.386719 C 183.714844 241.347656 181.453125 249.902344 176.757812 256.957031 C 176.632812 258.722656 176.351562 260.101562 177.304688 261.296875 C 177.820312 261.175781 178.585938 261.230469 178.800781 260.910156 C 180.011719 259.097656 181.253906 257.269531 182.179688 255.304688 C 184.164062 251.09375 185.730469 246.671875 187.894531 242.5625 C 190.21875 238.152344 191.394531 233.386719 192.898438 228.722656 C 193.386719 227.21875 194.042969 225.597656 193.507812 223.640625 C 193.222656 223.179688 192.800781 222.5 192.371094 221.804688 Z M 239.925781 218.25 C 240.835938 217.472656 241.445312 217.203125 241.613281 216.765625 C 242.886719 213.472656 244.199219 210.183594 245.238281 206.8125 C 245.789062 205.023438 245.894531 203.078125 246.035156 201.1875 C 246.089844 200.421875 245.695312 199.621094 245.515625 198.867188 C 244.15625 197.445312 242.847656 196.074219 241.5625 194.726562 C 241 194.753906 240.5 194.78125 239.851562 194.8125 C 238.730469 198.089844 237.566406 201.414062 236.460938 204.753906 C 235.855469 206.589844 235.667969 208.472656 236.191406 210.738281 C 237.242188 212.847656 238.445312 215.269531 239.925781 218.25 Z M 174.917969 166.152344 C 171.550781 170.304688 168.484375 173.753906 165.828125 177.496094 C 164.460938 179.425781 163.265625 181.699219 163.632812 184.78125 C 164.054688 185.585938 164.664062 186.785156 165.316406 187.953125 C 165.398438 188.101562 165.734375 188.105469 165.988281 188.1875 C 167.984375 187.121094 169.242188 185.335938 170.113281 183.34375 C 171.539062 180.085938 173.371094 177.082031 175.324219 174.132812 C 175.621094 173.6875 175.78125 173.152344 176.003906 172.65625 C 176.617188 168.25 176.632812 168.246094 174.917969 166.152344 Z M 244.417969 180.628906 C 247.203125 184.292969 249.84375 187.785156 252.515625 191.253906 C 252.648438 191.425781 253.160156 191.550781 253.273438 191.449219 C 253.628906 191.136719 254.082031 190.722656 254.121094 190.3125 C 254.230469 189.226562 254.351562 188.066406 254.097656 187.027344 C 252.722656 181.386719 250.816406 175.957031 246.988281 171.4375 C 246.503906 170.867188 245.65625 170.609375 244.28125 169.789062 C 244.28125 173.824219 243.753906 177.300781 244.417969 180.628906 Z M 166.488281 263.820312 C 165.257812 261.261719 164.195312 259.046875 163.121094 256.839844 C 163.003906 256.605469 162.820312 256.386719 162.621094 256.21875 C 162.429688 256.058594 162.117188 255.820312 161.964844 255.882812 C 161.492188 256.066406 160.734375 256.324219 160.6875 256.644531 C 159.980469 261.5 159.191406 266.335938 158.207031 271.148438 C 157.777344 273.246094 158.128906 275.511719 158.214844 277.695312 C 158.230469 278.074219 158.707031 278.4375 158.980469 278.816406 C 162.085938 274.390625 164.582031 269.460938 166.488281 263.820312 Z M 289.378906 225.925781 C 289.585938 227.632812 290.464844 229.023438 291.792969 230.03125 C 295.480469 232.828125 299.226562 235.554688 302.996094 238.246094 C 303.273438 238.441406 303.957031 238.132812 304.417969 237.96875 C 304.535156 237.929688 304.601562 237.515625 304.554688 237.300781 C 304.140625 235.328125 302.789062 233.941406 301.46875 232.570312 C 299.398438 230.421875 296.945312 228.589844 295.992188 225.574219 C 294.449219 224.148438 293.519531 222.023438 291.269531 221.414062 C 290.261719 222.796875 289.585938 224.253906 289.378906 225.925781 Z M 183.957031 142.90625 C 180.894531 143.304688 179.574219 145.324219 177.578125 146.214844 C 173.785156 147.90625 170.621094 150.488281 167.972656 153.710938 C 166.402344 155.621094 164.492188 157.148438 162.402344 158.476562 C 161.910156 158.789062 162.027344 159.441406 162.386719 159.871094 C 167.714844 158.066406 168.308594 157.785156 170.867188 155.59375 C 174.390625 152.578125 177.925781 149.570312 181.394531 146.484375 C 182.347656 145.636719 183.636719 144.988281 183.957031 142.90625 Z M 119.359375 327.234375 C 119.148438 326.921875 118.085938 327.035156 117.777344 327.28125 C 117.46875 327.53125 117.269531 328.277344 117.40625 328.671875 C 118.898438 332.941406 122.175781 335.867188 125.207031 339.007812 C 127.753906 341.644531 130.6875 343.402344 134.21875 343.917969 C 135.1875 343.683594 135.832031 343.269531 135.925781 342.296875 C 134.238281 339.660156 131.070312 340.433594 128.28125 338.964844 C 126.929688 337.582031 125.023438 335.976562 123.566406 334.035156 C 121.957031 331.886719 120.816406 329.386719 119.359375 327.234375 Z M 230.132812 196.261719 C 232.453125 192.832031 234.101562 190.554688 233.914062 187.539062 C 232.621094 185.128906 231.199219 183.171875 228.925781 182.011719 C 228.773438 181.933594 228.492188 182.097656 228.199219 182.160156 C 226.875 186.671875 229.292969 190.621094 230.132812 196.261719 Z M 291.375 176.433594 C 291.046875 176.003906 290.800781 175.445312 290.375 175.171875 C 287.84375 173.554688 285.039062 172.464844 282.496094 170.78125 C 280.046875 169.152344 277.132812 168.203125 274.742188 166.347656 C 274.492188 166.15625 273.761719 166.539062 273.285156 166.734375 C 273.191406 166.769531 273.152344 167.230469 273.253906 167.398438 C 274.566406 169.570312 276.3125 171.492188 278.742188 172.101562 C 282.808594 173.117188 286.269531 175.34375 290.019531 176.980469 C 290.332031 177.117188 290.914062 176.628906 291.375 176.433594 Z M 210.84375 145.507812 C 213.90625 145.828125 216.890625 145.921875 219.832031 146.25 C 222.757812 146.578125 225.585938 147.785156 228.460938 148.59375 C 228.714844 148.664062 229.007812 148.578125 229.273438 148.621094 C 229.988281 148.742188 230.117188 148.429688 229.949219 146.796875 C 226.148438 145.527344 222.304688 144.242188 218.539062 142.984375 C 217.085938 143.46875 215.792969 143.882812 214.511719 144.332031 C 213.347656 144.746094 211.851562 143.988281 210.84375 145.507812 Z M 213.539062 164.777344 C 212.03125 165.855469 210.480469 166.894531 209.011719 168.039062 C 207.878906 168.925781 208.046875 170.582031 209.320312 172.117188 C 211.488281 172.601562 213.414062 171.371094 215.5625 171.265625 C 216.171875 168.765625 216.265625 166.480469 213.539062 164.777344 Z M 165.648438 312.449219 C 163.683594 311.730469 161.710938 310.910156 159.671875 310.320312 C 159.023438 310.132812 158.195312 310.554688 157.453125 310.695312 C 157.734375 312.746094 158.015625 314.597656 159.484375 316.292969 C 160.242188 316.621094 161.214844 317.042969 162.085938 317.421875 C 164.515625 316.597656 165.808594 315.152344 165.648438 312.449219 Z M 202.289062 195.359375 C 201.875 195.683594 201.273438 195.917969 201.078125 196.339844 C 199.691406 199.308594 198.746094 202.441406 198.121094 205.648438 C 197.867188 206.957031 197.800781 208.371094 198.8125 209.710938 C 199.398438 209.171875 200.304688 208.746094 200.488281 208.105469 C 201.238281 205.5 201.691406 202.816406 202.429688 200.195312 C 202.851562 198.691406 202.957031 196.953125 202.289062 195.359375 Z M 239.910156 238.351562 C 236.699219 241.824219 234.480469 245.878906 232.960938 250.335938 C 232.902344 250.511719 233.160156 250.792969 233.289062 251.070312 C 233.726562 250.988281 234.351562 251.066406 234.605469 250.796875 C 237.472656 247.746094 239.238281 244.023438 240.753906 240.179688 C 241.003906 239.546875 240.875 238.652344 239.910156 238.351562 Z M 235.296875 165.167969 C 234.242188 164.726562 233.429688 164.855469 233 165.613281 C 232.480469 166.53125 232.183594 167.578125 231.871094 168.359375 C 232.429688 170.195312 232.796875 171.796875 233.433594 173.277344 C 233.695312 173.882812 234.546875 174.230469 235.359375 174.882812 C 236.445312 171.347656 236.078125 168.203125 235.296875 165.167969 Z M 221.660156 218.140625 C 224.054688 215.359375 225.199219 212.6875 225.582031 209.695312 C 225.640625 209.257812 225.300781 208.601562 224.933594 208.328125 C 224.628906 208.097656 224.015625 208.28125 223.074219 208.28125 C 222.90625 211.324219 220.289062 213.9375 221.660156 218.140625 Z M 196.457031 148.332031 C 194.351562 148.546875 192.503906 149.46875 190.605469 150.464844 C 192.195312 152.289062 192.375 152.53125 193.203125 152.503906 C 194.28125 152.464844 195.4375 152.433594 196.398438 152.023438 C 197.011719 151.761719 197.566406 150.875 197.738281 150.167969 C 197.933594 149.347656 197.292969 148.691406 196.457031 148.332031 Z M 269.75 272.632812 C 269.703125 271.691406 269.144531 271.15625 268.292969 270.949219 C 267.453125 270.746094 266.59375 270.929688 266.105469 271.640625 C 265.566406 272.433594 264.445312 273.167969 265.363281 274.375 C 267.203125 274.679688 268.460938 273.601562 269.75 272.632812 Z M 185.589844 161.914062 C 187.25 161.496094 188.226562 160.269531 189.011719 158.886719 C 189.246094 158.480469 189.328125 157.835938 189.1875 157.394531 C 188.917969 156.523438 188.125 156.457031 187.324219 156.574219 C 184.804688 159.90625 184.773438 159.902344 185.589844 161.914062 Z M 126.824219 319.832031 C 128.820312 318.917969 130.28125 318.257812 131.726562 317.566406 C 131.804688 317.53125 131.777344 317.265625 131.800781 317.101562 C 129.957031 316.730469 128.109375 316.375 126.257812 317.007812 C 125.691406 317.199219 125.40625 317.71875 125.628906 318.3125 C 125.789062 318.742188 126.210938 319.074219 126.824219 319.832031 Z M 208.660156 266.28125 C 208.214844 266.570312 207.75 266.832031 207.335938 267.15625 C 207.132812 267.316406 207.011719 267.585938 206.890625 267.824219 C 206.488281 268.601562 206.882812 269.632812 207.664062 269.640625 C 208.136719 269.644531 208.816406 269.402344 209.046875 269.042969 C 209.652344 268.09375 209.707031 267.074219 208.660156 266.28125 Z M 172.683594 271.628906 C 172.328125 271.363281 172.09375 271.0625 171.949219 271.101562 C 171.089844 271.328125 170.574219 272 170.378906 272.804688 C 170.269531 273.25 170.515625 273.78125 170.597656 274.273438 C 171.019531 274.078125 171.601562 273.988281 171.820312 273.65625 C 172.226562 273.039062 172.421875 272.28125 172.683594 271.628906 Z M 294.867188 178.410156 C 295.777344 179.1875 296.671875 179.335938 297.582031 178.402344 C 296.671875 177.722656 295.777344 177.394531 294.867188 178.410156 Z M 244.097656 276.292969 C 245.085938 276.191406 245.128906 275.953125 244.199219 275.679688 C 243.988281 275.617188 243.699219 275.820312 243.449219 275.902344 C 243.664062 276.035156 243.882812 276.164062 244.097656 276.292969 Z M 222.4375 162.503906 C 222.316406 162.316406 222.195312 162.128906 222.074219 161.9375 C 221.921875 162.097656 221.660156 162.242188 221.636719 162.417969 C 221.546875 163.046875 221.796875 163.320312 222.207031 163.101562 C 222.347656 163.023438 222.363281 162.710938 222.4375 162.503906 Z M 202.953125 279.726562 C 203.160156 279.625 203.367188 279.527344 203.574219 279.425781 C 203.402344 279.28125 203.246094 279.035156 203.058594 279.007812 C 202.421875 278.921875 202.128906 279.160156 202.34375 279.539062 C 202.421875 279.671875 202.742188 279.667969 202.953125 279.726562 Z M 123.003906 218.886719 C 122.894531 218.027344 122.660156 217.992188 122.398438 218.808594 C 122.34375 218.984375 122.542969 219.242188 122.625 219.460938 C 122.75 219.269531 122.878906 219.078125 123.003906 218.886719 Z M 131.230469 248.644531 C 131.132812 248.449219 131.035156 248.253906 130.9375 248.058594 C 130.789062 248.175781 130.542969 248.277344 130.515625 248.421875 C 130.394531 249.019531 130.601562 249.351562 131.007812 249.242188 C 131.125 249.210938 131.15625 248.851562 131.230469 248.644531 Z M 131.230469 248.644531 " fill-opacity="1" fill-rule="nonzero"/><path fill="#84a3a7" d="M 151.300781 71.6875 C 152.019531 78.453125 149.464844 84.011719 147.460938 89.6875 C 147.1875 90.460938 146.769531 91.1875 146.40625 91.929688 C 144.835938 95.140625 143.339844 98.390625 141.671875 101.550781 C 140.011719 104.703125 139.417969 108.351562 137.128906 111.203125 C 136.796875 113.828125 135.058594 115.617188 133.457031 117.511719 C 132.761719 118.332031 132.21875 119.320312 131.769531 120.304688 C 129.75 124.71875 126.808594 128.058594 122.097656 129.828125 C 119.3125 130.875 116.941406 132.902344 113.914062 133.535156 C 111.238281 134.097656 108.605469 134.867188 105.542969 135.652344 C 101.332031 134.730469 96.757812 133.835938 92.25 132.691406 C 90.421875 132.230469 88.734375 131.21875 86.769531 130.363281 C 86.054688 130.945312 85.261719 131.597656 84.476562 132.238281 C 83.257812 132.441406 82.226562 131.984375 81.640625 131.019531 C 80.195312 128.625 78.316406 126.671875 76.226562 125.265625 C 74.359375 122.238281 72.628906 119.433594 70.894531 116.636719 C 69.726562 114.753906 68.726562 112.847656 68.605469 110.535156 C 68.550781 109.484375 68.101562 108.402344 67.625 107.4375 C 65.144531 102.410156 64.183594 97.113281 63.933594 91.515625 C 63.652344 85.179688 64.011719 78.875 64.03125 72.351562 C 65.019531 69.414062 65.921875 66.234375 67.152344 63.183594 C 68.582031 59.628906 70.363281 56.214844 71.867188 52.683594 C 72.75 50.601562 74.058594 48.894531 75.675781 47.367188 C 77.871094 45.292969 79.960938 43.089844 82.28125 41.167969 C 84.597656 39.246094 87.148438 37.601562 90.015625 35.535156 C 91.183594 35.378906 92.816406 35.222656 94.421875 34.933594 C 95.761719 34.691406 97.074219 34.296875 98.554688 33.929688 C 100.285156 34.320312 102.15625 34.742188 104.027344 35.164062 C 110.566406 36.652344 116.289062 39.789062 121.417969 44.015625 C 124.808594 46.8125 128.75 48.886719 131.824219 52.097656 C 132.367188 52.664062 133.171875 53.132812 133.933594 53.308594 C 135.921875 53.777344 137.34375 55.0625 138.753906 56.363281 C 141.179688 58.601562 143.464844 60.988281 145.945312 63.160156 C 148.519531 65.410156 150.257812 68.121094 151.300781 71.6875 Z M 87.207031 112.476562 C 87.699219 113.847656 88.3125 115.375 88.796875 116.941406 C 89.472656 119.121094 90.910156 120.777344 92.425781 122.367188 C 94.449219 124.496094 97.449219 125.121094 99.976562 123.847656 C 101.433594 123.117188 102.832031 122.203125 104.082031 121.160156 C 104.574219 120.746094 104.589844 119.761719 104.808594 119.082031 C 104.167969 118.6875 103.714844 118.386719 103.242188 118.121094 C 103.007812 117.988281 102.722656 117.945312 102.476562 117.820312 C 98.230469 115.679688 95.828125 112.257812 95.308594 107.511719 C 95.160156 106.152344 95.082031 104.769531 94.757812 103.449219 C 94.429688 102.082031 94.453125 100.800781 94.613281 99.40625 C 94.984375 96.140625 95.257812 92.84375 95.242188 89.558594 C 95.210938 83.375 96.707031 77.601562 99.339844 72.074219 C 101.46875 67.609375 103.589844 63.148438 105.417969 59.304688 C 106.875 57.148438 108.902344 56.386719 109.496094 54.414062 C 108.84375 53.609375 107.996094 53.6875 107.324219 54.167969 C 104.625 56.09375 102.339844 58.46875 100.289062 61.066406 C 98.441406 63.398438 91.464844 76.417969 91.128906 79.410156 C 90.710938 83.097656 88.738281 86.113281 87.414062 90.265625 C 87.328125 93.609375 87.195312 97.722656 87.128906 101.835938 C 87.113281 102.925781 87.195312 104.039062 87.40625 105.105469 C 87.613281 106.171875 88.035156 107.191406 88.316406 108.082031 C 87.933594 109.597656 87.601562 110.921875 87.207031 112.476562 Z M 78.269531 93.566406 C 78.535156 92.878906 78.839844 92.128906 79.121094 91.371094 C 81.425781 85.226562 82.851562 78.734375 86.394531 73.074219 C 86.820312 72.394531 87.023438 71.550781 87.214844 70.753906 C 87.601562 69.117188 88.464844 67.765625 89.386719 66.375 C 91.351562 63.421875 93.128906 60.34375 94.960938 57.304688 C 95.300781 56.738281 95.113281 56.21875 94.5625 55.851562 C 94.320312 55.90625 94.011719 55.878906 93.84375 56.019531 C 90.292969 59 86.753906 61.996094 83.410156 64.832031 C 80.460938 69.101562 78.453125 73.605469 76.03125 77.636719 C 75.226562 81.9375 75.183594 86.046875 75.660156 90.15625 C 75.757812 90.960938 75.980469 91.789062 76.324219 92.515625 C 76.648438 93.199219 77.203125 93.792969 78.269531 93.566406 Z M 120.949219 65.621094 C 120.109375 66.101562 119.535156 66.277344 119.183594 66.660156 C 117.511719 68.472656 115.898438 70.34375 114.214844 72.253906 C 113.515625 76.917969 112.097656 81.347656 109.996094 85.566406 C 109.394531 86.765625 109.109375 88.144531 108.828125 89.476562 C 108.765625 89.773438 109.332031 90.207031 109.609375 90.578125 C 112.523438 88.886719 113.933594 85.707031 116.574219 83.664062 C 119.167969 81.660156 122.507812 80.761719 124.464844 78.46875 C 125.457031 74.96875 124.46875 72.085938 123.558594 69.191406 C 123.140625 67.863281 122.621094 66.601562 120.949219 65.621094 Z M 111.050781 42.480469 C 102.882812 36.433594 94.824219 37.148438 86.117188 43.519531 C 84.519531 45.195312 82.261719 47.558594 80.027344 49.945312 C 79.871094 50.113281 79.785156 50.503906 79.867188 50.707031 C 80.125 51.324219 80.703125 51.5625 81.242188 51.171875 C 84.53125 48.777344 87.785156 46.332031 90.925781 43.996094 C 94.417969 43.4375 97.769531 43.007812 100.914062 43.914062 C 103.640625 44.699219 106.328125 43.648438 109.003906 44.476562 C 109.957031 44.769531 110.933594 43.765625 111.050781 42.480469 Z M 104.496094 102.453125 C 104.34375 103.253906 104.097656 103.800781 104.171875 104.300781 C 104.5 106.484375 105.535156 108.371094 106.835938 110.121094 C 107.351562 110.816406 109.03125 111.070312 109.820312 110.683594 C 111.589844 109.820312 112.972656 108.457031 113.929688 106.855469 C 115.726562 103.851562 117.515625 100.796875 118.25 97.300781 C 118.34375 96.851562 117.996094 96.308594 117.621094 95.015625 C 114.105469 99.523438 108.816406 100.238281 104.496094 102.453125 Z M 136.816406 64.355469 C 138.078125 68.082031 139.121094 71.15625 140.136719 74.152344 C 140.480469 76.140625 138.746094 77.820312 139.515625 79.777344 C 140.375 80.8125 140.976562 82.113281 142.421875 82.519531 C 144.648438 81.117188 144.707031 81.140625 146.164062 76.378906 C 145.035156 73.300781 143.820312 70 142.707031 66.980469 C 141.136719 65.378906 139.730469 64.15625 136.816406 64.355469 Z M 129.425781 110.015625 C 132.21875 106.171875 134.226562 102.035156 135.898438 97.734375 C 137.136719 94.539062 137.128906 91.503906 136.128906 87.253906 C 135.460938 87.757812 134.480469 88.101562 134.300781 88.6875 C 132.488281 94.621094 131.449219 100.792969 128.707031 106.445312 C 128.378906 107.117188 128.488281 108.050781 128.566406 108.847656 C 128.597656 109.207031 129.046875 109.527344 129.425781 110.015625 Z M 86.277344 52.597656 C 86.308594 53.121094 86.15625 53.773438 86.414062 54.066406 C 86.679688 54.367188 87.554688 54.578125 87.796875 54.382812 C 90.53125 52.164062 93.277344 50.019531 96.753906 49.03125 C 97.125 48.925781 97.414062 48.203125 97.546875 47.714844 C 97.691406 47.203125 96.484375 46.574219 95.714844 46.667969 C 94.347656 46.832031 93.066406 47.195312 91.96875 48.070312 C 90.070312 49.585938 88.167969 51.097656 86.277344 52.597656 Z M 124.167969 110.851562 C 122.617188 112.71875 121.050781 114.554688 119.542969 116.4375 C 119.230469 116.828125 119.074219 117.371094 118.945312 117.867188 C 118.898438 118.046875 119.09375 118.355469 119.265625 118.503906 C 119.410156 118.625 119.742188 118.707031 119.886719 118.625 C 122.042969 117.394531 123.65625 115.597656 124.753906 113.417969 C 125.140625 112.648438 125.457031 111.472656 124.167969 110.851562 Z M 83.339844 58 C 83.148438 57.886719 82.886719 57.621094 82.773438 57.675781 C 81.789062 58.136719 81.078125 58.855469 81.03125 60.011719 C 81.023438 60.203125 81.269531 60.566406 81.425781 60.582031 C 82.585938 60.683594 83.625 59.257812 83.339844 58 Z M 83.339844 58 " fill-opacity="1" fill-rule="nonzero"/><g clip-path="url(#854637bb24)"><path fill="#84a3a7" d="M 256.042969 10.207031 C 257.847656 13.109375 260.113281 15.972656 261.5 19.214844 C 262.867188 22.414062 264.449219 25.621094 264.433594 29.382812 C 264.421875 32.355469 265.40625 35.324219 265.683594 38.320312 C 265.960938 41.324219 265.910156 44.363281 266.003906 47.386719 C 266.015625 47.664062 265.992188 47.964844 266.09375 48.207031 C 268.296875 53.441406 266.492188 58.503906 265.320312 63.546875 C 264.390625 67.546875 263.121094 71.472656 261.84375 75.988281 C 261.253906 77.492188 259.164062 78.75 258.746094 81.085938 C 258.566406 82.101562 257.816406 83.046875 257.210938 83.945312 C 255.378906 86.679688 253.496094 89.375 251.300781 92.566406 C 247.816406 95.167969 243.859375 98.117188 240.371094 100.722656 C 236.804688 101.460938 233.867188 102.121094 230.90625 102.664062 C 228.421875 103.125 225.976562 102.921875 223.640625 101.851562 C 221.652344 100.9375 219.65625 100.042969 217.542969 99.089844 C 217.113281 98.269531 218.3125 98.027344 218.335938 96.898438 C 216.699219 93.292969 213.789062 89.996094 211.636719 86.105469 C 210.171875 85.34375 208.726562 84.597656 207.347656 83.878906 C 206.566406 84.472656 205.921875 84.960938 205.269531 85.453125 C 203.226562 85.007812 202.546875 82.863281 200.886719 81.917969 C 199.699219 81.242188 198.667969 80.230469 197.214844 80.171875 C 193.660156 80.019531 190.996094 78.269531 188.765625 75.640625 C 188.238281 75.019531 187.566406 74.519531 186.996094 73.992188 C 186.277344 72.121094 185.488281 70.359375 184.925781 68.53125 C 184.1875 66.105469 184.214844 63.636719 185.132812 61.234375 C 185.722656 59.691406 186.191406 58.074219 187.007812 56.65625 C 189.34375 52.597656 190.324219 47.972656 192.714844 43.898438 C 197.308594 36.0625 202.175781 28.417969 207.761719 21.28125 C 210.792969 17.410156 214.0625 13.667969 217.925781 10.515625 C 220.261719 8.613281 222.429688 6.5 224.582031 4.566406 C 227.34375 3.632812 229.941406 2.757812 232.566406 1.871094 C 234.753906 1.871094 236.949219 1.871094 239.144531 1.871094 C 241.691406 1.875 244.039062 2.621094 246.183594 3.9375 C 249.453125 5.949219 252.664062 8.050781 256.042969 10.207031 Z M 249.046875 47.449219 C 249.0625 45.269531 249.03125 43.085938 247.433594 41.3125 C 245.929688 40.195312 244.582031 38.785156 242.554688 38.6875 C 242.285156 38.773438 241.9375 38.773438 241.804688 38.941406 C 240.386719 40.714844 239.773438 42.9375 239.902344 45.023438 C 240.058594 47.496094 239.558594 49.886719 239.644531 52.324219 C 239.726562 54.742188 240.722656 57.046875 240.269531 59.566406 C 240.109375 60.46875 240.863281 61.632812 241.847656 62.277344 C 244.144531 60.816406 245.183594 59.832031 245.648438 58.375 C 246.8125 54.75 247.914062 51.105469 249.046875 47.449219 Z M 224.785156 56.199219 C 224.394531 58.195312 224.40625 60.152344 224.949219 61.953125 C 225.746094 64.613281 226.097656 67.316406 226.128906 70.039062 C 226.171875 73.515625 227.394531 76.441406 229.582031 79.027344 C 230.640625 80.273438 231.769531 81.453125 232.664062 82.445312 C 234.203125 83.222656 235.503906 83.460938 236.898438 83.144531 C 238.453125 82.785156 239.144531 81.519531 238.828125 79.375 C 238.429688 79.011719 238.078125 78.566406 237.617188 78.300781 C 234.648438 76.597656 232.648438 74.054688 231.304688 70.972656 C 229.566406 66.980469 227.605469 63.082031 226.152344 58.964844 C 225.832031 58.0625 226.082031 56.886719 224.785156 56.199219 Z M 215.226562 27.117188 C 216.175781 26.421875 217.019531 25.71875 217.945312 25.152344 C 219.335938 24.296875 220.796875 23.554688 222.210938 22.734375 C 223.863281 21.777344 225.542969 20.855469 227.117188 19.777344 C 227.746094 19.347656 228.121094 18.550781 228.574219 17.972656 C 228.011719 17.050781 227.160156 16.796875 226.46875 17.105469 C 223.484375 18.4375 220.558594 19.902344 218.917969 20.6875 C 210.792969 27.152344 208.023438 35.21875 205.117188 43.488281 C 205.179688 45.078125 205.175781 46.960938 205.375 48.824219 C 205.4375 49.414062 206.160156 49.488281 206.914062 49.03125 C 208.984375 41.554688 211.921875 34.257812 215.226562 27.117188 Z M 198.632812 54.136719 C 197.953125 54.316406 197.171875 54.304688 197.03125 54.597656 C 195.867188 57.058594 194.765625 59.554688 193.753906 62.085938 C 193.03125 63.902344 192.839844 65.792969 193.78125 68.089844 C 194.441406 68.769531 195.253906 69.941406 196.359375 70.675781 C 198.390625 72.027344 200.585938 73.125 202.730469 74.300781 C 202.925781 74.410156 203.292969 74.390625 203.496094 74.273438 C 204.042969 73.960938 204.246094 73.4375 204.050781 72.863281 C 201.949219 66.707031 200.011719 60.503906 198.632812 54.136719 Z M 234.835938 6.851562 C 233.414062 7.523438 231.921875 8.199219 230.457031 8.929688 C 229.972656 9.171875 229.539062 9.523438 229.132812 9.882812 C 228.941406 10.050781 228.78125 10.347656 228.765625 10.59375 C 228.757812 10.792969 228.992188 11.195312 229.109375 11.1875 C 233.273438 11.019531 237.160156 12.269531 241.085938 13.414062 C 243.769531 14.199219 246.179688 15.398438 248.355469 17.140625 C 249.417969 17.992188 250.523438 18.8125 251.695312 19.5 C 252.046875 19.710938 252.84375 19.605469 253.144531 19.328125 C 253.414062 19.078125 253.496094 18.085938 253.292969 17.945312 C 250.773438 16.160156 249.304688 13.445312 247.402344 11.285156 C 243.503906 8.855469 239.449219 7.347656 234.835938 6.851562 Z M 215.53125 47.695312 C 215.015625 48.433594 214.738281 48.648438 214.714844 48.886719 C 214.117188 54.929688 214.214844 60.976562 214.65625 67.023438 C 214.796875 68.964844 215.507812 70.648438 216.972656 71.976562 C 217.128906 71.46875 217.539062 70.878906 217.410156 70.464844 C 216.140625 66.464844 216.15625 62.367188 216.1875 58.234375 C 216.214844 54.964844 216.65625 51.652344 215.53125 47.695312 Z M 215.53125 47.695312 " fill-opacity="1" fill-rule="nonzero"/></g><g clip-path="url(#d5e9d55bbe)"><path fill="#84a3a7" d="M 75.210938 236.777344 C 71.125 239.796875 67.039062 241.445312 63.007812 243.179688 C 61.246094 243.9375 59.386719 244.476562 57.664062 245.308594 C 55.941406 246.136719 54.335938 247.207031 52.363281 248.351562 C 50.78125 248.460938 48.878906 248.589844 46.800781 248.730469 C 44.707031 247.617188 42.570312 246.421875 40.378906 245.324219 C 37.394531 243.828125 34.6875 242.011719 32.746094 239.210938 C 32.4375 238.761719 32.195312 238.183594 31.765625 237.910156 C 27.519531 235.222656 24.65625 231.066406 20.949219 227.816406 C 19.300781 226.375 17.441406 225.179688 15.769531 223.761719 C 13.679688 221.992188 11.5 220.273438 9.707031 218.226562 C 8.289062 216.609375 6.890625 214.652344 6.386719 212.621094 C 5.761719 210.113281 4.070312 208.253906 3.304688 205.988281 C 2.507812 202.445312 2.765625 198.824219 1.492188 195.382812 C 0.859375 193.667969 1.089844 191.570312 1.207031 189.664062 C 1.339844 187.421875 0.929688 185.300781 0.300781 182.988281 C 0.953125 180.777344 1.648438 178.410156 2.363281 175.980469 C 1.613281 172.730469 2.746094 170.132812 5.550781 168.316406 C 5.898438 166.257812 6.214844 164.375 6.527344 162.519531 C 7.265625 160.085938 9.804688 158.683594 9.738281 156.300781 C 12.648438 153.554688 15.246094 151.105469 17.957031 148.542969 C 19.640625 147.929688 21.4375 147.273438 23.371094 146.570312 C 24.0625 146.648438 24.914062 146.609375 25.664062 146.863281 C 28.796875 147.917969 32.300781 147.179688 35.292969 148.871094 C 41.125 149.792969 46.195312 152.601562 51.089844 155.632812 C 55.980469 158.664062 60.777344 161.851562 65.304688 165.464844 C 69.230469 168.597656 72.484375 172.128906 75.195312 176.351562 C 77.734375 180.296875 80.148438 184.257812 81.769531 188.890625 C 82.507812 192.171875 82.601562 195.742188 83.5 199.230469 C 84.378906 202.640625 84.410156 206.269531 84.8125 209.804688 C 83.628906 212.683594 84.292969 215.8125 83.523438 219.25 C 82.34375 221.785156 80.929688 224.734375 80.003906 227.925781 C 79.089844 231.09375 77.199219 233.867188 75.210938 236.777344 Z M 37.601562 212.160156 C 37.65625 212.679688 37.6875 213.203125 37.769531 213.714844 C 37.898438 214.519531 38.253906 214.660156 38.667969 214.066406 C 38.777344 213.910156 38.714844 213.496094 38.574219 213.328125 C 38.253906 212.9375 37.839844 212.625 37.460938 212.285156 C 37.425781 211.460938 37.605469 210.546875 37.3125 209.824219 C 35.953125 206.449219 35.484375 202.960938 35.5 199.34375 C 35.507812 197.996094 35.050781 196.652344 34.847656 195.300781 C 34.683594 194.222656 34.277344 193.058594 34.515625 192.0625 C 35.40625 188.351562 35.507812 184.421875 37.445312 180.984375 C 38.117188 179.789062 38.695312 178.53125 39.269531 177.285156 C 39.9375 175.828125 41.582031 174.921875 41.589844 173.109375 C 36.769531 169.253906 36.113281 169.078125 31.1875 170.371094 C 29.160156 172.160156 27.882812 174.601562 26.625 176.589844 C 25.933594 179.085938 25.203125 181.175781 24.804688 183.328125 C 24.460938 185.199219 24.234375 187.167969 24.421875 189.042969 C 24.636719 191.191406 25.371094 193.289062 25.832031 195.203125 C 25.59375 196.496094 25.394531 197.558594 25.296875 198.089844 C 26.296875 204.347656 28.09375 209.757812 30.363281 215.117188 C 32.699219 220.632812 36.347656 224.824219 40.921875 228.390625 C 41.550781 228.878906 42.496094 228.832031 43.15625 228.011719 C 42.695312 225.742188 40.453125 224.710938 39.429688 222.789062 C 38.402344 220.859375 37.03125 219.109375 36 217.183594 C 35.007812 215.332031 33.359375 213.675781 33.742188 211.304688 C 35.339844 210.539062 36.347656 211.882812 37.601562 212.160156 Z M 26.101562 159.28125 C 26.671875 160.753906 27.410156 161.597656 28.53125 161.84375 C 30.132812 162.191406 31.785156 162.304688 33.402344 162.601562 C 40.410156 163.902344 47.289062 165.414062 53.445312 169.4375 C 56.933594 171.714844 60.179688 174.207031 62.925781 177.261719 C 65.667969 180.316406 68.058594 183.6875 69.957031 186.101562 C 72.042969 191.230469 72.894531 195.492188 72.457031 199.984375 C 72.351562 201.066406 72.488281 202.183594 72.621094 203.269531 C 72.65625 203.546875 73.09375 203.769531 73.59375 204.261719 C 74.203125 201.277344 73.929688 198.527344 73.976562 195.8125 C 74.015625 193.628906 74.136719 191.421875 73.371094 189.28125 C 72.171875 185.945312 71.738281 182.351562 69.832031 179.234375 C 68.679688 177.351562 67.546875 175.507812 65.980469 173.917969 C 62.300781 170.1875 58.207031 166.988281 53.820312 164.164062 C 50.59375 162.085938 47.195312 160.261719 44.035156 158.089844 C 41.710938 156.492188 39.097656 155.707031 36.535156 154.761719 C 34.457031 153.992188 32.242188 153.851562 30.03125 154.203125 C 28.585938 154.433594 27.429688 155.199219 26.832031 156.511719 C 26.394531 157.472656 26.277344 158.578125 26.101562 159.28125 Z M 51.121094 205.886719 C 52.15625 207.964844 51.75 210.144531 53.789062 211.453125 C 54.636719 210.988281 55.574219 210.476562 56.273438 210.09375 C 57.542969 207.933594 58.601562 206.03125 58.859375 203.789062 C 59.296875 199.988281 59.808594 196.195312 60.21875 192.390625 C 60.371094 190.988281 59.960938 189.675781 59.042969 188.570312 C 58.480469 187.894531 57.738281 187.691406 56.683594 187.957031 C 54.636719 190.085938 54.109375 193.15625 52.902344 195.316406 C 52.632812 198.015625 52.480469 200.207031 52.164062 202.375 C 52.011719 203.4375 51.558594 204.457031 51.121094 205.886719 Z M 75.03125 231.59375 C 76.671875 226.078125 78.402344 220.613281 79.882812 215.085938 C 80.367188 213.277344 80.261719 211.300781 80.304688 209.398438 C 80.308594 209.058594 79.699219 208.417969 79.394531 208.433594 C 78.941406 208.453125 78.320312 208.828125 78.105469 209.234375 C 77.738281 209.929688 77.566406 210.753906 77.410156 211.539062 C 75.769531 219.746094 72.578125 227.171875 66.6875 233.285156 C 65.75 234.261719 64.886719 235.371094 64.257812 236.5625 C 63.746094 237.527344 63.777344 238.675781 64.867188 239.460938 C 66.910156 239.300781 68.628906 238.296875 69.664062 236.660156 C 70.894531 234.722656 72.84375 233.695312 75.03125 231.59375 Z M 13.324219 163.347656 C 14.460938 162.535156 15.824219 161.632812 17.101562 160.625 C 17.949219 159.957031 18.808594 159.226562 19.433594 158.363281 C 21.339844 155.738281 23.132812 153.035156 24.980469 150.351562 C 23.257812 149.558594 22.527344 149.445312 21.945312 149.824219 C 18.949219 151.789062 16.292969 154.1875 14.507812 157.261719 C 13.101562 159.679688 11.335938 161.652344 9.351562 163.523438 C 8.976562 163.875 8.796875 164.4375 8.53125 164.90625 C 9.253906 166.296875 9.253906 166.296875 10.90625 166.757812 C 11.628906 165.738281 12.40625 164.644531 13.324219 163.347656 Z M 48.507812 178.53125 C 47.324219 178.78125 46.539062 179.578125 46.175781 180.589844 C 44.878906 184.167969 43.699219 187.785156 42.429688 191.527344 C 42.617188 192.480469 42.820312 193.527344 43.03125 194.597656 C 43.691406 194.394531 44.4375 194.382812 44.574219 194.089844 C 46.609375 189.667969 48.566406 185.203125 50.496094 180.851562 C 50.332031 179.519531 49.679688 178.773438 48.507812 178.53125 Z M 49.347656 224.972656 C 49.335938 224.761719 49.410156 224.457031 49.300781 224.355469 C 47.542969 222.78125 45.757812 221.234375 44.199219 219.875 C 43.246094 219.886719 42.765625 220.277344 42.976562 220.785156 C 43.929688 223.058594 45.445312 224.835938 47.933594 225.472656 C 48.339844 225.574219 48.875 225.152344 49.347656 224.972656 Z M 45.523438 239.617188 C 48.609375 241.824219 48.625 241.84375 50.328125 241.742188 C 50.6875 241.722656 51.066406 241.21875 51.335938 240.863281 C 51.417969 240.753906 51.25 240.28125 51.074219 240.171875 C 50.425781 239.769531 49.757812 239.269531 49.039062 239.128906 C 47.859375 238.90625 46.578125 238.597656 45.523438 239.617188 Z M 71.511719 208.433594 C 70.894531 209.339844 70.882812 210.226562 71.542969 211.117188 C 72.160156 210.210938 72.3125 209.324219 71.511719 208.433594 Z M 23.347656 168 C 23.523438 167.890625 23.789062 167.8125 23.851562 167.652344 C 23.933594 167.460938 23.941406 167.109375 23.816406 166.980469 C 23.410156 166.546875 23.078125 166.71875 23.027344 167.417969 C 23.011719 167.601562 23.234375 167.804688 23.347656 168 Z M 23.347656 168 " fill-opacity="1" fill-rule="nonzero"/></g><path fill="#84a3a7" d="M 332.609375 157 C 329.058594 157.980469 325.265625 158.003906 321.171875 157.121094 C 319.097656 155.699219 316.847656 154.152344 314.851562 152.777344 C 313.957031 151.015625 313.230469 149.574219 312.460938 148.0625 C 310.433594 147.871094 308.519531 147.804688 306.648438 147.496094 C 302.332031 146.785156 299 144.542969 296.941406 140.628906 C 295.152344 137.226562 293.546875 133.742188 292.964844 129.886719 C 292.847656 129.085938 292.585938 128.289062 292.582031 127.492188 C 292.582031 126.6875 292.820312 125.882812 292.953125 125.085938 C 292.296875 123.84375 291.664062 122.640625 291.113281 121.59375 C 291.113281 120.878906 291.078125 120.335938 291.121094 119.796875 C 291.34375 117.066406 289.921875 114.390625 290.753906 111.664062 C 291.484375 109.28125 291.683594 106.808594 292.230469 104.410156 C 293.011719 100.996094 293.527344 97.453125 295.96875 94.570312 C 296.980469 93.375 297.171875 91.519531 298.007812 90.128906 C 299.992188 86.832031 302.261719 83.722656 305.054688 81.039062 C 306.835938 79.324219 308.636719 77.628906 310.664062 75.707031 C 314.976562 73.382812 319.5 70.792969 324.09375 68.953125 C 326.507812 68.476562 328.617188 70.03125 330.828125 68.792969 C 331.667969 68.320312 332.960938 68.492188 334.027344 68.601562 C 337.289062 68.925781 340.535156 69.433594 343.800781 69.730469 C 347.65625 70.085938 351.367188 70.953125 355.269531 72.585938 C 357.527344 74.496094 360.210938 76.609375 361.925781 79.367188 C 364.664062 83.765625 368.335938 87.703125 369.492188 92.980469 C 370.527344 97.695312 369.609375 102.214844 368.011719 106.699219 C 365.785156 112.929688 361.539062 121.886719 357.996094 127.386719 C 357.847656 127.613281 357.605469 127.789062 357.480469 128.027344 C 356.230469 130.445312 355.769531 133.25 353.753906 135.292969 C 351.996094 137.078125 350.824219 139.257812 349.792969 141.523438 C 349.570312 142.015625 349.242188 142.496094 348.859375 142.875 C 343.792969 147.859375 339.414062 153.636719 332.609375 157 Z M 358.386719 106.402344 C 357.804688 106.925781 357.007812 107.339844 356.667969 107.988281 C 354.164062 112.789062 352.316406 117.925781 349.210938 122.207031 C 349.546875 123.511719 349.730469 124.617188 351.3125 125.179688 C 351.589844 122.613281 353.128906 120.660156 354.523438 118.667969 C 356.300781 116.125 356.40625 113 357.734375 110.296875 C 358.296875 109.15625 358.109375 107.640625 358.261719 106.292969 C 358.488281 106.160156 358.8125 106.082031 358.929688 105.882812 C 360.121094 103.832031 360.890625 101.621094 361.222656 99.277344 C 361.292969 98.8125 360.980469 98.289062 360.832031 97.753906 C 359.671875 98.488281 359.160156 99.652344 358.960938 100.875 C 358.660156 102.699219 358.566406 104.558594 358.386719 106.402344 Z M 339.527344 91.574219 C 336.851562 91.980469 335.210938 93.4375 334.0625 95.375 C 329.816406 102.535156 327.070312 110.273438 325.574219 118.449219 C 325.429688 119.234375 325.546875 120.097656 325.695312 120.898438 C 325.847656 121.730469 326.351562 122.375 327.210938 122.660156 C 328.050781 122.941406 328.824219 122.78125 329.503906 122.261719 C 329.9375 121.933594 330.484375 121.605469 330.6875 121.144531 C 332.570312 116.910156 335.0625 112.941406 336.417969 108.476562 C 336.890625 106.921875 336.996094 105.253906 337.472656 103.703125 C 337.695312 102.984375 338.453125 102.503906 339.597656 102.785156 C 340.125 104.53125 340.007812 106.476562 340.261719 108.363281 C 340.550781 110.527344 339.605469 112.746094 340.527344 114.875 C 340.796875 114.851562 341.148438 114.921875 341.234375 114.804688 C 343.578125 111.445312 345.894531 108.070312 347.960938 105.070312 C 348.433594 102.714844 348.8125 100.832031 349.183594 98.976562 C 348.347656 96.871094 347.128906 95.070312 345.460938 93.554688 C 343.410156 92.871094 341.34375 92.179688 339.527344 91.574219 Z M 315.378906 116.925781 C 315.789062 115.527344 316.109375 113.886719 316.742188 112.382812 C 319.695312 105.359375 321.339844 97.710938 326.65625 91.804688 C 327.546875 90.816406 327.933594 89.386719 328.617188 88.195312 C 329.15625 87.253906 329.796875 86.371094 330.425781 85.410156 C 332.875 84.820312 335.273438 84.296875 337.640625 83.65625 C 340.710938 82.824219 343.601562 82.945312 346.242188 84.933594 C 348.253906 86.445312 350.730469 86.855469 352.996094 87.769531 C 353.714844 88.058594 354.6875 87.0625 354.433594 86.25 C 354.195312 85.496094 353.972656 84.601562 353.433594 84.109375 C 351.003906 81.867188 348.175781 80.1875 345.023438 78.460938 C 343.050781 78.394531 340.871094 78.300781 338.6875 78.25 C 336.382812 78.199219 334.289062 79.007812 332.613281 80.457031 C 329.914062 82.777344 327.070312 85.070312 324.933594 87.867188 C 322.125 91.550781 319.472656 95.414062 317.589844 99.726562 C 316.164062 102.992188 314.597656 106.203125 312.953125 109.746094 C 312.589844 111.5625 312.316406 113.753906 311.707031 115.851562 C 310.261719 120.8125 310.59375 125.617188 312.597656 130.332031 C 312.804688 130.824219 313.21875 131.226562 313.574219 131.71875 C 315.488281 133.050781 317.496094 133.390625 319.605469 132.054688 C 319.648438 131.503906 319.691406 130.988281 319.734375 130.472656 C 318.707031 128.207031 316.074219 127.089844 315.378906 124.144531 C 315.378906 122.050781 315.378906 119.582031 315.378906 116.925781 Z M 296.046875 109.558594 C 296.46875 111.453125 296.824219 113.0625 297.191406 114.667969 C 297.609375 116.515625 296.460938 118.523438 297.75 120.28125 C 299 120.085938 299.730469 119.21875 299.972656 118.136719 C 300.753906 114.617188 301.945312 111.265625 303.667969 108.09375 C 304.058594 107.375 304.410156 106.578125 304.539062 105.777344 C 304.992188 102.980469 306.457031 100.625 307.777344 98.222656 C 309.234375 95.574219 311.09375 93.128906 312.390625 90.410156 C 314.09375 86.832031 316.679688 84.027344 319.378906 81.273438 C 321.113281 79.503906 322.96875 77.847656 324.707031 76.078125 C 325.261719 75.511719 325.609375 74.742188 326.042969 74.078125 C 325.015625 73.167969 323.832031 73.125 322.871094 73.605469 C 320.175781 74.953125 317.6875 76.796875 314.894531 77.867188 C 312.433594 78.808594 310.578125 80.265625 309.042969 82.234375 C 307.859375 83.746094 306.65625 85.308594 305.859375 87.035156 C 304.765625 89.410156 302.730469 90.816406 300.757812 92.707031 C 300.65625 95.039062 299.878906 97.371094 298.75 99.597656 C 298.378906 100.332031 297.773438 101.214844 297.914062 101.894531 C 298.472656 104.605469 296.601562 106.621094 296.046875 109.558594 Z M 337.332031 137.921875 C 331.628906 141.414062 326.859375 144.640625 321.511719 146.84375 C 320.855469 147.113281 320.722656 148.34375 321.15625 149.011719 C 321.984375 150.28125 323.214844 150.726562 324.960938 150.851562 C 327 150.15625 329.324219 149.367188 331 148.796875 C 333.535156 146.949219 335.5625 145.554688 337.5 144.035156 C 338.785156 143.027344 340.132812 141.992188 341.101562 140.703125 C 343.402344 137.640625 345.511719 134.429688 347.644531 131.242188 C 347.921875 130.828125 347.929688 130.210938 347.980469 129.683594 C 348.003906 129.453125 347.878906 129.0625 347.714844 128.992188 C 347.253906 128.792969 346.496094 128.457031 346.285156 128.648438 C 343.066406 131.542969 339.179688 133.785156 337.332031 137.921875 Z M 337.332031 137.921875 " fill-opacity="1" fill-rule="nonzero"/><path fill="#84a3a7" d="M 373.144531 247 C 373.144531 248.921875 373.144531 250.84375 373.144531 253.304688 C 372.179688 255.335938 371.042969 257.832031 369.824219 260.285156 C 367.980469 264.003906 365.890625 267.378906 361.996094 269.535156 C 359.164062 271.105469 357.066406 273.816406 354.273438 275.652344 C 351.507812 277.46875 348.75 279.257812 345.742188 280.574219 C 340.714844 282.773438 335.601562 284.769531 330.527344 286.855469 C 328.222656 287.804688 325.851562 288.21875 323.351562 288.480469 C 320.109375 288.820312 316.953125 289.8125 313.675781 290.257812 C 310.46875 290.695312 307.273438 291.574219 304.082031 292.304688 C 303.554688 292.425781 303.015625 292.664062 302.496094 292.625 C 302.003906 292.582031 301.335938 292.371094 301.109375 292.003906 C 300.90625 291.675781 301.191406 291.039062 301.285156 290.371094 C 302.203125 289.972656 303.160156 289.371094 304.203125 289.140625 C 306.605469 288.613281 309.125 288.503906 311.457031 287.777344 C 313.871094 287.027344 316.253906 286.703125 318.746094 286.738281 C 320.394531 286.761719 321.980469 286.441406 323.570312 285.863281 C 325.355469 285.214844 327.285156 284.964844 329.679688 284.421875 C 332.8125 282.0625 336.734375 280.207031 341.011719 279.007812 C 344.191406 278.121094 347.128906 276.65625 349.871094 274.742188 C 351.886719 273.339844 354.15625 272.308594 357 270.730469 C 359.019531 268.832031 361.1875 265.890625 364.089844 264.835938 C 367.730469 259.707031 368.851562 254.253906 370.78125 248.847656 C 371.519531 248.332031 372.398438 247.71875 373.277344 247.105469 Z M 373.144531 247 " fill-opacity="1" fill-rule="nonzero"/><path fill="#84a3a7" d="M 85.839844 304.410156 C 87.382812 302.210938 87.398438 302.226562 89.394531 301.183594 C 89.566406 301.335938 89.878906 301.472656 89.894531 301.636719 C 90.5625 308.683594 90.046875 315.742188 90.152344 322.796875 C 90.15625 323.1875 89.617188 323.636719 89.25 323.96875 C 88.800781 324.367188 87.535156 323.515625 87.480469 322.769531 C 87.226562 319.261719 86.789062 315.808594 85.945312 312.359375 C 85.382812 310.050781 85.839844 307.496094 85.839844 304.410156 Z M 85.839844 304.410156 " fill-opacity="1" fill-rule="nonzero"/><path fill="#84a3a7" d="M 271.8125 298.234375 C 271.089844 296.996094 270.9375 296.097656 271.882812 295.773438 C 273.933594 295.070312 276.027344 294.367188 278.164062 294.042969 C 283.585938 293.21875 288.867188 291.839844 294.167969 290.492188 C 294.835938 290.320312 295.679688 290.851562 296.320312 291.027344 C 296.832031 292.417969 296.453125 293.328125 295.371094 293.9375 C 294.898438 294.207031 294.363281 294.597656 293.878906 294.566406 C 288.527344 294.234375 283.707031 296.507812 278.679688 297.695312 C 276.488281 298.210938 274.390625 298.453125 271.8125 298.234375 Z M 271.8125 298.234375 " fill-opacity="1" fill-rule="nonzero"/><g clip-path="url(#08b042a147)"><path fill="#84a3a7" d="M 373.277344 247.105469 C 372.738281 244.726562 372.003906 242.371094 371.714844 239.960938 C 371.457031 237.800781 371.71875 235.582031 371.699219 233.386719 C 371.683594 231.730469 371.40625 230.128906 370.714844 228.589844 C 369.789062 226.527344 369.773438 224.332031 369.957031 222.128906 L 369.824219 222.257812 C 370.527344 222.652344 371.230469 223.046875 372.152344 223.5625 C 373.011719 226.003906 373.910156 228.558594 374.691406 230.789062 C 374.691406 235.527344 374.710938 239.902344 374.683594 244.273438 C 374.675781 245.429688 374.105469 246.34375 373.144531 247 Z M 373.277344 247.105469 " fill-opacity="1" fill-rule="nonzero"/></g><path fill="#84a3a7" d="M 92.03125 278.402344 C 91.960938 281.628906 92.285156 284.867188 90.929688 288 C 90.425781 289.167969 90.636719 290.65625 90.550781 292 C 90.445312 293.609375 90.371094 295.21875 90.296875 296.640625 C 88.210938 298.527344 88.210938 298.527344 86.136719 297.078125 C 86.546875 293.933594 86.960938 290.738281 87.390625 287.542969 C 87.464844 287.007812 87.554688 286.46875 87.703125 285.953125 C 88.371094 283.632812 89.0625 281.320312 89.761719 278.945312 C 90.582031 278.800781 91.371094 278.664062 92.160156 278.527344 Z M 92.03125 278.402344 " fill-opacity="1" fill-rule="nonzero"/><path fill="#84a3a7" d="M 345.019531 192.445312 C 345.8125 192.574219 346.605469 192.703125 347.632812 192.871094 C 350.394531 195.121094 353.042969 197.78125 356.328125 199.730469 C 358.960938 201.296875 360.425781 203.976562 359.90625 207.316406 L 360.042969 207.199219 C 359.339844 206.816406 358.53125 206.550781 357.953125 206.027344 C 353.789062 202.269531 349.675781 198.453125 345.445312 194.566406 C 345.359375 193.894531 345.257812 193.101562 345.15625 192.308594 Z M 345.019531 192.445312 " fill-opacity="1" fill-rule="nonzero"/><path fill="#84a3a7" d="M 269.277344 296.449219 C 267.582031 298.375 267.1875 299.265625 266.585938 299.433594 C 263.21875 300.386719 259.980469 301.925781 256.296875 301.558594 C 254.40625 301.371094 252.519531 301.839844 250.71875 302.589844 C 249.992188 302.890625 249.136719 302.976562 248.339844 302.96875 C 247.855469 302.964844 247.234375 302.707031 246.9375 302.34375 C 246.667969 302.011719 246.75 301.390625 246.675781 300.875 C 248.871094 299.367188 251.453125 300.257812 253.804688 299.734375 C 255.90625 299.269531 257.796875 297.917969 260.078125 298.1875 C 262.566406 298.476562 264.933594 297.941406 269.277344 296.449219 Z M 269.277344 296.449219 " fill-opacity="1" fill-rule="nonzero"/><path fill="#84a3a7" d="M 369.957031 222.128906 C 369.183594 221.964844 368.410156 221.804688 367.386719 221.589844 C 366.820312 220.527344 366.042969 219.417969 365.613281 218.191406 C 364.894531 216.148438 363.988281 214.316406 362.335938 212.828125 C 361.839844 212.382812 361.875 211.347656 361.667969 210.578125 L 361.535156 210.695312 C 364.003906 210.578125 365.960938 211.777344 366.925781 213.820312 C 368.1875 216.496094 369.730469 219.152344 369.824219 222.257812 Z M 369.957031 222.128906 " fill-opacity="1" fill-rule="nonzero"/><path fill="#84a3a7" d="M 241.6875 302.21875 C 238.257812 303.40625 235.535156 303.496094 229.070312 302.640625 C 232.625 300.265625 236.554688 299.75 240.675781 300.394531 C 241.527344 300.527344 241.878906 301.308594 241.6875 302.21875 Z M 241.6875 302.21875 " fill-opacity="1" fill-rule="nonzero"/><path fill="#84a3a7" d="M 89.828125 332.34375 C 88.640625 331.046875 88.226562 329.625 89.195312 328.027344 C 89.480469 327.550781 90.085938 327.441406 90.523438 327.910156 C 91.046875 328.476562 91.449219 329.191406 91.757812 329.90625 C 92.089844 330.6875 91.925781 331.53125 91.265625 332.058594 C 90.929688 332.332031 90.320312 332.257812 89.828125 332.34375 Z M 89.828125 332.34375 " fill-opacity="1" fill-rule="nonzero"/><path fill="#84a3a7" d="M 223.703125 303.84375 C 221.519531 305.160156 219.742188 305.804688 217.851562 306.132812 C 217.664062 306.164062 217.347656 305.929688 217.222656 305.734375 C 217.132812 305.597656 217.195312 305.257812 217.3125 305.109375 C 218.972656 303.042969 221.046875 303.441406 223.703125 303.84375 Z M 223.703125 303.84375 " fill-opacity="1" fill-rule="nonzero"/><path fill="#84a3a7" d="M 93.832031 341.273438 C 93.203125 340.847656 92.535156 340.464844 91.953125 339.980469 C 91.464844 339.574219 91.445312 339.066406 91.839844 338.746094 C 91.980469 338.632812 92.308594 338.660156 92.511719 338.738281 C 92.726562 338.816406 92.996094 338.996094 93.0625 339.191406 C 93.3125 339.914062 93.488281 340.660156 93.6875 341.394531 Z M 93.832031 341.273438 " fill-opacity="1" fill-rule="nonzero"/><path fill="#84a3a7" d="M 359.90625 207.316406 C 361.304688 208.027344 361.609375 209.269531 361.535156 210.695312 L 361.667969 210.582031 C 360.125 209.9375 360.085938 208.566406 360.042969 207.199219 Z M 359.90625 207.316406 " fill-opacity="1" fill-rule="nonzero"/><path fill="#84a3a7" d="M 187.335938 326.988281 C 187.148438 326.917969 186.796875 326.835938 186.800781 326.777344 C 186.816406 326.53125 186.941406 326.296875 187.023438 326.058594 C 187.214844 326.132812 187.5625 326.214844 187.558594 326.277344 C 187.546875 326.515625 187.421875 326.75 187.335938 326.988281 Z M 187.335938 326.988281 " fill-opacity="1" fill-rule="nonzero"/><path fill="#84a3a7" d="M 93.6875 341.394531 C 94.101562 341.722656 94.550781 342.011719 94.902344 342.390625 C 95.050781 342.546875 95.113281 342.980469 95 343.144531 C 94.582031 343.777344 94.167969 343.664062 93.988281 342.863281 C 93.875 342.347656 93.878906 341.804688 93.832031 341.273438 Z M 93.6875 341.394531 " fill-opacity="1" fill-rule="nonzero"/><path fill="#84a3a7" d="M 28.703125 201.269531 C 28.917969 201.195312 29.15625 201.019531 29.339844 201.0625 C 30.042969 201.238281 30.113281 201.601562 29.515625 201.945312 C 29.359375 202.03125 29.023438 201.929688 28.84375 201.808594 C 28.726562 201.730469 28.746094 201.457031 28.703125 201.269531 Z M 28.703125 201.269531 " fill-opacity="1" fill-rule="nonzero"/></svg>